<svg width="60" height="60" viewBox="0 0 60 60" fill="none" xmlns="http://www.w3.org/2000/svg">
<path d="M30 0C13.4573 0 0 13.4573 0 30C0 46.5427 13.4573 60 30 60C46.5427 60 60 46.5427 60 30C60 13.4573 46.5427 0 30 0Z" fill="#2B51F3"/>
<path d="M45.2052 23.6426L28.955 39.8923C28.4675 40.3798 27.8276 40.6252 27.1876 40.6252C26.5477 40.6252 25.9077 40.3798 25.4202 39.8923L17.2953 31.7674C16.3176 30.7901 16.3176 29.2099 17.2953 28.2326C18.2727 27.2548 19.8524 27.2548 20.8302 28.2326L27.1876 34.59L41.6703 20.1077C42.6477 19.1299 44.2274 19.1299 45.2052 20.1077C46.1825 21.0851 46.1825 22.6648 45.2052 23.6426Z" fill="#FAFAFA"/>
</svg>
