<svg width="133" height="27" viewBox="0 0 133 27" fill="none" xmlns="http://www.w3.org/2000/svg">
<path d="M37.7278 8.47958C37.0779 6.853 36.0218 5.7144 33.747 5.7144C31.2286 5.7144 29.1976 7.4223 29.1976 11.1634C29.1976 14.9045 31.3098 16.6125 33.747 16.6125C35.9405 16.6125 37.0779 15.4738 37.7278 13.8473L40.4087 14.4979C39.6776 17.5884 37.2404 19.3776 33.747 19.3776C29.7662 19.3776 26.1917 16.5311 26.1917 11.1634C26.1917 5.79573 29.7662 2.94922 33.8283 2.94922C37.3216 2.94922 39.7588 4.73845 40.49 7.82894L37.7278 8.47958Z" fill="#2A64FA"/>
<path d="M44.4704 2.94873V19.2145H41.627V2.94873H44.4704Z" fill="#2A64FA"/>
<path d="M51.132 7.42139C54.8691 7.42139 56.9813 10.0239 56.9813 13.4397C56.9813 16.7742 54.7878 19.458 51.132 19.458C47.4762 19.458 45.2827 16.8555 45.2827 13.4397C45.2015 10.1052 47.395 7.42139 51.132 7.42139ZM51.132 16.9369C53.0006 16.9369 54.0567 15.3103 54.0567 13.3584C54.0567 11.4065 53.0006 9.77992 51.132 9.77992C49.2635 9.77992 48.2074 11.4065 48.2074 13.3584C48.2074 15.3103 49.2635 16.9369 51.132 16.9369Z" fill="#2A64FA"/>
<path d="M64.8621 19.2145V17.3439C64.0497 18.5638 62.7498 19.3771 61.2875 19.3771C59.2565 19.3771 57.7129 18.2385 57.7129 15.88V7.66577H60.5563V15.0667C60.5563 16.4493 61.2062 16.9373 62.1811 16.9373C63.5622 16.9373 64.8621 15.3107 64.8621 12.2202V7.66577H67.7055V19.2145H64.8621Z" fill="#2A64FA"/>
<path d="M76.4792 18.9705C75.8293 19.2958 75.1794 19.3771 74.6107 19.3771C72.011 19.3771 70.3862 17.9946 70.3862 15.0667V10.1057H68.5989V7.6658H70.3862V4.73796L73.2296 2.94873V7.6658H76.3167V10.1057H73.2296V15.148C73.2296 16.612 73.7983 17.0186 74.7732 17.0186C75.1794 17.0186 75.5043 16.9373 75.9105 16.7746L76.4792 18.9705Z" fill="#2A64FA"/>
<path d="M96.0584 3.11108L91.8339 19.2142H88.828L85.9034 9.78004L82.9787 19.2142H79.9728L75.7483 3.11108H78.9167L81.5976 14.9851L84.6035 4.81899H87.122L90.1279 14.9851L92.8088 3.11108H96.0584Z" fill="#2A64FA"/>
<path d="M95.0837 10.6745C95.4899 8.80398 97.1147 7.42139 99.4707 7.42139C102.233 7.42139 104.345 8.55999 104.345 12.3011V19.2141H101.989L101.745 17.7501C100.933 18.7261 99.8769 19.3767 98.1708 19.3767C96.2211 19.3767 94.6775 18.1568 94.6775 15.8796C94.6775 13.6024 96.7085 12.0571 99.6332 12.0571H101.583V11.5692C101.583 10.2679 100.608 9.86125 99.5519 9.86125C98.7395 9.86125 97.9271 10.1052 97.5209 11.1625L95.0837 10.6745ZM98.8208 16.9369C100.121 16.9369 101.502 16.0422 101.502 14.5783V14.3343H99.6332C98.4146 14.3343 97.6834 14.8223 97.6834 15.7983C97.6021 16.3676 98.0084 16.9369 98.8208 16.9369Z" fill="#2A64FA"/>
<path d="M108.651 2.94873V19.2145H105.807V2.94873H108.651Z" fill="#2A64FA"/>
<path d="M112.875 2.94873V19.2145H110.032V2.94873H112.875Z" fill="#2A64FA"/>
<path d="M124.655 14.3346H116.693C116.774 15.6359 117.668 16.9371 119.455 16.9371C120.755 16.9371 121.568 16.3678 122.218 15.1479L124.492 15.9612C123.599 17.9944 122.055 19.377 119.212 19.377C115.231 19.377 113.687 16.1238 113.687 13.3587C113.687 10.5935 115.312 7.34033 119.212 7.34033C123.111 7.34033 124.573 10.5122 124.573 13.0333V14.3346H124.655ZM116.774 12.1387H121.73C121.486 11.0001 120.755 9.94285 119.212 9.94285C117.831 9.86152 116.937 11.0001 116.774 12.1387Z" fill="#2A64FA"/>
<path d="M132.292 18.9705C131.642 19.2958 130.992 19.3771 130.423 19.3771C127.823 19.3771 126.199 17.9946 126.199 15.0667V10.1057H124.411V7.6658H126.199V4.73796L129.042 2.94873V7.6658H132.129V10.1057H129.042V15.148C129.042 16.612 129.611 17.0186 130.586 17.0186C130.992 17.0186 131.317 16.9373 131.723 16.7746L132.292 18.9705Z" fill="#2A64FA"/>
<path d="M10.8191 24.8301L2.62922 16.2501C1.48524 15.0516 1.52942 13.1527 2.72789 12.0087L6.53609 8.37368C7.73457 7.2297 9.63351 7.27388 10.7775 8.47236L18.9673 17.0523C20.1113 18.2508 20.0672 20.1498 18.8687 21.2937L15.0605 24.9288C13.862 26.0728 11.9631 26.0286 10.8191 24.8301Z" fill="#2A64FA"/>
<path d="M10.8313 21.9666L2.64143 13.3866C1.49745 12.1881 1.54162 10.2892 2.7401 9.14519L6.5483 5.51016C7.74678 4.36617 9.64572 4.41035 10.7897 5.60883L18.9796 14.1888C20.1235 15.3873 20.0794 17.2862 18.8809 18.4302L15.0727 22.0653C13.8742 23.2092 11.9753 23.1651 10.8313 21.9666Z" fill="white"/>
<path d="M11.112 19.2478L2.92219 10.6678C1.77821 9.46936 1.82239 7.57042 3.02086 6.42644L6.82906 2.79141C8.02754 1.64742 9.92648 1.6916 11.0705 2.89008L19.2603 11.4701C20.4043 12.6685 20.3601 14.5675 19.1616 15.7115L15.3534 19.3465C14.155 20.4905 12.256 20.4463 11.112 19.2478Z" fill="#2A64FA"/>
</svg>
