<svg width="357" height="431" viewBox="0 0 357 431" fill="none" xmlns="http://www.w3.org/2000/svg">
<g opacity="0.1">
<path d="M204.603 443.473L6.90454 236.357C3.09127 232.363 3.23853 226.033 7.23345 222.219L132.512 102.638C136.507 98.8245 142.836 98.9717 146.65 102.967L344.348 310.083C348.161 314.078 348.014 320.407 344.019 324.221L218.741 443.802C214.746 447.616 208.416 447.468 204.603 443.473Z" fill="white"/>
<path d="M204.811 394.367L7.1128 187.252C3.29952 183.257 3.44678 176.927 7.44171 173.114L132.72 53.5318C136.715 49.7185 143.045 49.8657 146.858 53.8607L344.556 260.977C348.369 264.972 348.222 271.301 344.227 275.115L218.949 394.696C214.954 398.51 208.624 398.362 204.811 394.367Z" fill="#2A64FA"/>
<path d="M209.629 347.74L11.9309 140.624C8.11764 136.629 8.26489 130.299 12.2598 126.486L137.538 6.90433C141.533 3.09106 147.863 3.2383 151.676 7.23322L349.374 214.349C353.188 218.344 353.04 224.674 349.045 228.487L223.767 348.069C219.772 351.882 213.442 351.735 209.629 347.74Z" fill="white"/>
</g>
</svg>
