<svg width="55" height="54" viewBox="0 0 55 54" fill="none" xmlns="http://www.w3.org/2000/svg">
<rect x="0.197998" width="54" height="54" rx="8" fill="#EAF0FF"/>
<g clipPath="url(#clip0)">
<path d="M21.5433 29.0521C22.3021 29.0521 23.0355 29.0031 23.7295 28.9119V21.3047C23.0356 21.2136 22.3021 21.1646 21.5433 21.1646C17.2109 21.1646 13.6987 22.7575 13.6987 24.7225V25.4941C13.6987 27.4591 17.2109 29.0521 21.5433 29.0521Z" fill="#2A64FA"/>
<path d="M21.5433 33.0246C22.3021 33.0246 23.0355 32.9756 23.7295 32.8845V30.6547C23.0354 30.7458 22.3023 30.7955 21.5433 30.7955C17.7616 30.7955 14.6051 29.5817 13.8637 27.9663C13.7557 28.2016 13.6987 28.4453 13.6987 28.695V29.4666C13.6987 31.4317 17.2109 33.0246 21.5433 33.0246Z" fill="#2A64FA"/>
<path d="M23.7288 34.8002V34.6268C23.0346 34.718 22.3015 34.7677 21.5426 34.7677C17.7608 34.7677 14.6044 33.5539 13.863 31.9385C13.755 32.1737 13.698 32.4174 13.698 32.6671V33.4387C13.698 35.4038 17.2101 36.9967 21.5426 36.9967C22.409 36.9967 23.2423 36.9329 24.0216 36.8152C23.8284 36.4201 23.7288 36.0034 23.7288 35.5717V34.8002Z" fill="#2A64FA"/>
<path d="M32.8535 15.1387C28.5211 15.1387 25.0089 16.7316 25.0089 18.6966V19.4682C25.0089 21.4332 28.5211 23.0262 32.8535 23.0262C37.1859 23.0262 40.6981 21.4332 40.6981 19.4682V18.6966C40.6981 16.7316 37.1859 15.1387 32.8535 15.1387Z" fill="#2A64FA"/>
<path d="M32.8535 24.7692C29.0717 24.7692 25.9153 23.5554 25.1739 21.9399C25.0659 22.1752 25.0089 22.4188 25.0089 22.6687V23.4403C25.0089 25.4053 28.5211 26.9982 32.8535 26.9982C37.1859 26.9982 40.6981 25.4053 40.6981 23.4403V22.6687C40.6981 22.4188 40.6411 22.1752 40.5331 21.9399C39.7917 23.5554 36.6352 24.7692 32.8535 24.7692Z" fill="#2A64FA"/>
<path d="M32.8535 28.7413C29.0717 28.7413 25.9153 27.5275 25.1739 25.9121C25.0659 26.1474 25.0089 26.391 25.0089 26.6408V27.4124C25.0089 29.3775 28.5211 30.9705 32.8535 30.9705C37.1859 30.9705 40.6981 29.3775 40.6981 27.4124V26.6408C40.6981 26.391 40.6411 26.1474 40.5331 25.9121C39.7917 27.5276 36.6352 28.7413 32.8535 28.7413Z" fill="#2A64FA"/>
<path d="M32.8535 32.9283C29.0717 32.9283 25.9153 31.7145 25.1739 30.0991C25.0659 30.3344 25.0089 30.578 25.0089 30.8278V31.5994C25.0089 33.5645 28.5211 35.1574 32.8535 35.1574C37.1859 35.1574 40.6981 33.5645 40.6981 31.5994V30.8278C40.6981 30.578 40.6411 30.3343 40.5331 30.0991C39.7917 31.7145 36.6352 32.9283 32.8535 32.9283Z" fill="#2A64FA"/>
<path d="M32.8535 36.9005C29.0717 36.9005 25.9153 35.6868 25.1739 34.0714C25.0659 34.3067 25.0089 34.5504 25.0089 34.8V35.5716C25.0089 37.5366 28.5211 39.1296 32.8535 39.1296C37.1859 39.1296 40.6981 37.5366 40.6981 35.5716V34.7999C40.6981 34.5502 40.6411 34.3065 40.5331 34.0713C39.7917 35.6867 36.6352 36.9005 32.8535 36.9005Z" fill="#2A64FA"/>
</g>
<defs>
<clipPath id="clip0">
<rect width="27" height="27" fill="white" transform="translate(13.698 13.6338)"/>
</clipPath>
</defs>
</svg>

