<svg width="37" height="37" viewBox="0 0 37 37" fill="none" xmlns="http://www.w3.org/2000/svg">
<g clipPath="url(#clip0)">
<path d="M2.50708 31.4525H31.7087C32.9173 31.4525 33.8994 30.4704 33.8994 29.2619V24.3183H23.417C22.632 24.3183 21.8653 24.1649 21.146 23.8582C20.4523 23.5661 19.828 23.1426 19.2949 22.6096C18.7618 22.0765 18.3383 21.4521 18.0462 20.7584C17.7432 20.0391 17.5862 19.2724 17.5862 18.4874V17.8704C17.5862 17.0854 17.7395 16.3187 18.0462 15.5994C18.3383 14.9057 18.7619 14.2813 19.2949 13.7483C19.828 13.2152 20.4523 12.7917 21.146 12.4996C21.8653 12.1966 22.632 12.0396 23.417 12.0396H33.8994V7.09594C33.8994 5.88742 32.9173 4.90527 31.7087 4.90527H2.50708C1.29856 4.90527 0.316406 5.88742 0.316406 7.09594V29.2619C0.316406 30.4703 1.29856 31.4525 2.50708 31.4525Z" fill="#6A93FE"/>
<path d="M36.3164 15.8735C36.3164 14.9643 35.5825 14.2305 34.6734 14.2305H33.8994H23.417C21.4052 14.2305 19.7769 15.8589 19.7769 17.8706V18.4877C19.7769 20.4995 21.4053 22.1278 23.417 22.1278H33.8994H34.6734C35.5825 22.1278 36.3164 21.394 36.3164 20.4848V15.8735ZM24.0121 20.1124C22.9424 20.1124 22.0771 19.2472 22.0771 18.1773C22.0771 17.1076 22.9424 16.2422 24.0121 16.2422C25.0819 16.2422 25.9472 17.1076 25.9472 18.1773C25.9472 19.2472 25.0819 20.1124 24.0121 20.1124Z" fill="#6A93FE"/>
</g>
<defs>
<clipPath id="clip0">
<rect width="36" height="36" fill="white" transform="translate(0.316406 0.178711)"/>
</clipPath>
</defs>
</svg>
